# xmcd
#
# Track frame offsets:
#	150
#	22785
#	35817
#	58680
#	74681
#	97559
#	113905
#	137465
#	154189
#	175186
#	190937
#	206650
#
# Disc length: 3065 seconds
#
# Revision: 0
# Processed by: cddbd v1.5.2PL0 Copyright (c) Steve Scherf et al.
# Submitted via: EasyCDDAExtractor 16.0.8.1
#
DISCID=9f0bf70c
DTITLE=Stevie Cochran - Changes
DYEAR=2012
DGENRE=Blues
TTITLE0=Changes
TTITLE1=Running Back
TTITLE2=Bags
TTITLE3=Change My Phone
TTITLE4=if it Only Could be
TTITLE5=Look Both Ways
TTITLE6=Now You're Lonely
TTITLE7=Later Than You Think
TTITLE8=Tough Love
TTITLE9=Leavin'
TTITLE10=Everybody's Girl
TTITLE11=Sometimes You never Know -  (Live)
EXTD=
EXTT0=
EXTT1=
EXTT2=
EXTT3=
EXTT4=
EXTT5=
EXTT6=
EXTT7=
EXTT8=
EXTT9=
EXTT10=
EXTT11=
PLAYORDER=
